# xmcd CD database file
#
# Track frame offsets:
#	150
#	13424
#	30057
#	45204
#	57036
#	70642
#	80487
#	95858
#	109830
#	119434
#	129784
#	142534
#	154871
#
# Disc length: 2235 seconds
#
# Revision: 0
# Processed by: cddbd v1.5.2PL0 Copyright (c) Steve Scherf et al.
# Submitted via: CDex 1.51
#
DISCID=9708b90d
DTITLE=Amber Gougis - Amber Gougis
DYEAR=2013
DGENRE=Jazz
TTITLE0=Half Way
TTITLE1=Let Me Love you
TTITLE2=Runnin' Back to You
TTITLE3=Let's Make Amends
TTITLE4=Garden Bed
TTITLE5=Where I Need to Be
TTITLE6=Talk to Me
TTITLE7=Ignite
TTITLE8=This Old House
TTITLE9=Been Blu
TTITLE10=Foolish
TTITLE11=Untitled
TTITLE12=Paris Je T' Aime
EXTD=YEAR: 2013
EXTT0=
EXTT1=
EXTT2=
EXTT3=
EXTT4=
EXTT5=
EXTT6=
EXTT7=
EXTT8=
EXTT9=
EXTT10=
EXTT11=
EXTT12=
PLAYORDER=
